<svg width="87" height="32" viewBox="0 0 87 32" fill="none" xmlns="http://www.w3.org/2000/svg">
<path d="M0 15.2277H5.57381C5.62764 16.332 6.03745 17.1596 6.80335 17.7104C7.62299 18.2626 8.71548 18.538 10.0821 18.538C11.0657 18.538 11.9122 18.3454 12.623 17.9587C13.2788 17.5733 13.6067 17.0484 13.6067 16.3863C13.6067 15.3931 12.4591 14.6483 10.164 14.1518C9.18039 13.9863 8.44272 13.8208 7.95093 13.6553C5.05389 12.9389 3.11489 12.0828 2.13124 11.0898C1.03749 10.0966 0.491873 8.77251 0.491873 7.11732C0.491873 5.02121 1.28338 3.28326 2.86891 1.90346C4.50828 0.634912 6.63942 0 9.26235 0C12.103 0 14.3712 0.634912 16.0657 1.90346C17.65 3.28317 18.4966 5.07675 18.6067 7.28283H15.0821C14.0434 7.28283 13.2506 6.8147 12.705 5.8759C12.486 5.65603 12.2671 5.4349 12.0493 5.21385C11.3936 4.71732 10.4919 4.46906 9.34441 4.46906C8.25066 4.46906 7.43102 4.63457 6.88541 4.96559C6.39362 5.29661 6.14773 5.79314 6.14773 6.45527C6.14773 7.33845 7.56808 8.08325 10.41 8.68976C10.7379 8.80092 11.0249 8.88367 11.2706 8.93802C11.5167 8.99365 11.7484 9.02078 11.9674 9.02078C14.7543 9.73845 16.6934 10.566 17.7871 11.5035C18.8245 12.4967 19.3445 13.8208 19.3445 15.476C19.3445 17.9044 18.4698 19.7794 16.7216 21.1036C15.0822 22.3178 12.6232 22.9243 9.3445 22.9243C6.2297 22.9243 3.90649 22.2907 2.37722 21.0208C0.791505 19.7523 0 17.9044 0 15.476V15.2277Z" fill="white"/>
<path d="M35.8316 15.7242H39.93C39.328 18.0415 38.1805 19.8078 36.4873 21.0208C34.7929 22.2907 32.6617 22.9243 30.0938 22.9243C26.979 22.9243 24.547 21.904 22.7987 19.8622C21.0493 17.876 20.1758 15.035 20.1758 11.338C20.1758 7.80776 21.0224 5.04834 22.7167 3.06213C24.4649 1.02156 26.8971 0 30.0119 0C33.2906 0 35.8316 0.993154 37.6349 2.97937C39.3831 5.02121 40.2578 7.86211 40.2578 11.5035C40.2578 11.7247 40.2578 11.9173 40.2578 12.0828C40.2578 12.2483 40.2578 12.3595 40.2578 12.4138C40.2578 12.6905 40.2297 12.8832 40.1758 12.9931H25.9955C26.0493 14.7039 26.4591 15.9725 27.225 16.8C27.9346 17.6832 29.0002 18.1242 30.4218 18.1242C31.3504 18.1242 32.1431 17.9316 32.7988 17.5449C32.9628 17.4906 33.1125 17.3937 33.2496 17.2553C33.3854 17.1182 33.5365 16.9656 33.7004 16.8C33.7543 16.6345 33.9591 16.4147 34.3153 16.138C34.6698 15.8626 35.1759 15.7242 35.8316 15.7242ZM25.9955 9.26904H34.3561C34.246 7.77936 33.8644 6.67632 33.2086 5.95865C32.4978 5.18663 31.4872 4.79999 30.1757 4.79999C28.9731 4.79999 27.9895 5.18663 27.2248 5.95865C26.4591 6.73185 26.0493 7.83489 25.9955 9.26904Z" fill="white"/>
<path d="M41.5781 22.5105V11.8346C41.5781 9.68287 41.8918 7.87646 42.5207 6.41381C43.1482 4.95271 44.009 3.77984 45.1027 2.89658C46.1401 2.06902 47.3569 1.46252 48.7503 1.07587C50.1438 0.690497 51.5785 0.496582 53.0536 0.496582C53.1623 0.496582 53.2994 0.496582 53.4636 0.496582C53.6272 0.496582 53.7631 0.496582 53.8736 0.496582V6.37248H51.9879C50.4023 6.37248 49.2282 6.75913 48.4634 7.53114C47.6975 8.30444 47.3159 9.51736 47.3159 11.1726V22.5106H41.5781V22.5105Z" fill="white"/>
<path d="M55.9258 0.496582H58.8767C59.6411 0.496582 60.2969 0.773252 60.8439 1.32413C61.3895 1.87629 61.6635 2.53833 61.6635 3.31035V22.5105H55.9258V0.496582Z" fill="white"/>
<path d="M66.2423 22.6371C68.0471 22.6371 69.5101 21.16 69.5101 19.3379C69.5101 17.5157 68.0471 16.0386 66.2423 16.0386C64.4376 16.0386 62.9746 17.5157 62.9746 19.3379C62.9746 21.16 64.4376 22.6371 66.2423 22.6371Z" fill="#F2994A"/>
<path d="M81.8534 2.97928C80.0504 0.993063 77.5094 0 74.2306 0C71.1158 0 68.6838 1.02156 66.9357 3.06213C65.2411 5.04834 64.3945 7.80785 64.3945 11.338C64.3945 12.8114 64.5356 14.1464 64.8133 15.348C65.3365 15.1112 65.9149 14.9765 66.5254 14.9765C68.8418 14.9765 70.7196 16.8724 70.7196 19.2112C70.7196 20.2609 70.3392 21.2195 69.7128 21.9594C71.0309 22.6027 72.5641 22.9244 74.3125 22.9244C76.8805 22.9244 79.0117 22.2908 80.7062 21.0209C82.3991 19.808 83.5466 18.0416 84.1486 15.7243H80.0505C79.3948 15.7243 78.8889 15.8627 78.534 16.1381C78.1779 16.4148 77.9729 16.6346 77.9191 16.8001C77.7554 16.9656 77.6042 17.1183 77.4683 17.2554C77.3313 17.3938 77.1815 17.4907 77.0176 17.545C76.3619 17.9317 75.5691 18.1243 74.6404 18.1243C73.2187 18.1243 72.1533 17.6833 71.4438 16.8001C70.6779 15.9726 70.268 14.704 70.2144 12.9932H84.3947C84.4485 12.8833 84.4765 12.6906 84.4765 12.4139C84.4765 12.3596 84.4765 12.2484 84.4765 12.0829C84.4765 11.9174 84.4765 11.7247 84.4765 11.5036C84.4765 7.86211 83.6018 5.02112 81.8534 2.97928ZM70.2143 9.26904C70.2679 7.83498 70.6778 6.73194 71.4437 5.95865C72.2081 5.18663 73.1918 4.79999 74.3946 4.79999C75.7061 4.79999 76.7166 5.18663 77.4275 5.95865C78.0832 6.67632 78.4646 7.77936 78.5748 9.26904H70.2143Z" fill="white"/>
<path d="M67.4061 25.3248V28.3982C67.4061 29.6709 66.7481 30.3031 65.4402 30.2951C64.1401 30.2712 63.4902 29.5588 63.4902 28.1501C63.4902 26.7095 64.045 25.9732 65.1629 25.9331C65.686 25.9331 66.0902 26.1492 66.3598 26.5894V24.7886H66.8829C67.1684 24.7887 67.4061 25.0368 67.4061 25.3248ZM64.5762 28.1021C64.5682 28.9585 64.8536 29.3908 65.4561 29.3908C66.0586 29.3908 66.3599 28.9586 66.3599 28.1021C66.336 27.2858 66.0428 26.8856 65.472 26.8856C64.9013 26.8857 64.6079 27.2859 64.5762 28.1021Z" fill="white"/>
<path d="M69.8322 30.3271C68.5638 30.2871 67.9297 29.5428 67.9297 28.102C67.9297 26.6614 68.5719 25.941 69.8481 25.9331C71.1798 25.9331 71.8061 26.7575 71.7269 28.4143H69.0157C69.0553 29.0625 69.3327 29.3907 69.8481 29.3907C70.0939 29.3907 70.3238 29.2866 70.5299 29.0865C70.6247 28.9825 70.7438 28.9345 70.8866 28.9345H71.6633C71.4333 29.8308 70.8627 30.3271 69.8322 30.3271ZM69.0314 27.6539H70.6089C70.5456 27.0936 70.2841 26.8054 69.8321 26.8054C69.3803 26.8054 69.1107 27.0936 69.0314 27.6539Z" fill="white"/>
<path d="M74.1279 29.4627C74.5717 29.4627 74.7936 29.3347 74.7936 29.0625C74.7936 28.8465 74.4292 28.6704 73.7076 28.5423C72.7803 28.3742 72.3046 27.9581 72.2966 27.2938C72.2966 26.3813 73.01 25.949 73.9692 25.9331C74.5084 25.9331 74.9365 26.0531 75.2535 26.2933C75.5625 26.5414 75.7292 26.8856 75.7528 27.3257H75.087C74.8412 27.3177 74.6826 27.2297 74.6193 27.0616C74.5477 26.8776 74.3339 26.7736 73.9849 26.7736C73.5727 26.7736 73.3666 26.8856 73.3666 27.1017C73.3666 27.3178 73.6362 27.4858 74.1833 27.5898C74.8967 27.734 75.3644 27.918 75.5943 28.1342C75.7923 28.3423 75.8876 28.5984 75.8876 28.8865C75.8876 29.9269 75.079 30.3112 73.9691 30.3112C73.3825 30.3112 72.9387 30.1831 72.6532 29.9349C72.3362 29.695 72.1777 29.3266 72.1777 28.8385H73.2556C73.2797 29.3026 73.6125 29.4627 74.1279 29.4627Z" fill="white"/>
<path d="M76.9747 24.7886C77.3236 24.7886 77.4901 24.9646 77.482 25.3088V25.621H76.4277V24.7886H76.9747ZM76.9747 25.997C77.3156 25.997 77.482 26.1652 77.482 26.5093V30.2311H76.4277V25.9971H76.9747V25.997Z" fill="white"/>
<path d="M78.0918 28.1181C78.0918 26.7093 78.7417 26.005 80.0418 25.981C81.3497 25.973 82.0077 26.5973 82.0077 27.8699V30.3751C82.0077 31.4396 81.3419 31.9757 80.0021 31.9998C79.0509 31.9998 78.4485 31.5516 78.2027 30.6551H79.368C79.4393 30.9593 79.685 31.1034 80.1211 31.1034C80.6759 31.1034 80.9612 30.7753 80.9612 30.119C80.9612 30.119 80.9612 30.127 80.9612 29.6867C80.6916 30.1028 80.2875 30.3111 79.7643 30.3111C78.6466 30.3111 78.0918 29.5747 78.0918 28.1181ZM80.9614 28.1501C80.9692 27.2937 80.676 26.8695 80.0735 26.8695C79.471 26.8695 79.1779 27.2938 79.1779 28.1501C79.2018 28.9664 79.4869 29.3746 80.0578 29.3746C80.6286 29.3746 80.9298 28.9664 80.9614 28.1501Z" fill="white"/>
<path d="M85.6163 30.2306C85.2674 30.2067 85.0932 30.0385 85.0932 29.7024V27.5254C85.0693 27.0853 84.8313 26.8691 84.3636 26.8691C83.8959 26.8691 83.6582 27.0853 83.6502 27.5254V30.2306H82.5801V27.7414C82.5801 26.5329 83.1826 25.9326 84.3795 25.9326C85.5767 25.9326 86.1634 26.5329 86.1553 27.7414V30.2306H85.6163Z" fill="white"/>
</svg>
