<?xml version="1.0" encoding="utf-8" ?>
<svg xmlns="http://www.w3.org/2000/svg" xmlns:xlink="http://www.w3.org/1999/xlink" viewBox="0 0 1024 228">
	<path fill="#FEFEFE" d="M152.393 54.4683C152.55 54.4627 152.51 54.4591 152.702 54.4821C155.098 54.7707 243.568 105.177 244.689 106.713C243.578 108.847 223.274 119.332 219.444 121.467C224.428 124.159 242.507 133.229 245.303 136.371C239.759 140.576 226.069 147.302 219.425 150.8C223.985 153.595 242.51 162.69 244.69 165.711C242.905 168.393 163.749 211.351 153.112 217.584C152.888 217.617 152.545 217.717 152.329 217.698C151.153 217.596 69.5894 170.923 59.9454 165.642C68.1816 160.069 77.4014 155.649 86.0315 150.689C77.3274 145.968 68.3599 141.272 60.0475 135.891C68.4338 130.653 77.3246 126.088 85.9983 121.344Q73.0309 113.887 59.9455 106.639C69.8458 99.7902 81.3397 94.2774 91.8577 88.3896L152.393 54.4683Z"/>
	<path fill="#0096FE" d="M152.834 59.9619C161.081 64.1719 232.794 104.328 234.745 106.681C233.926 108.138 160.779 148.494 152.565 153.093C143.962 147.517 134.366 142.746 125.42 137.69L69.9613 106.367C97.8319 91.4402 125.274 75.4657 152.834 59.9619Z"/>
	<path fill="#6BCFF8" d="M90.3092 124.436C93.5855 124.368 145.169 154.568 152.554 158.74L214.434 124.201C218.427 126.534 232.395 132.987 234.655 136.249C233.014 138.529 218.77 145.536 215.274 147.449L152.606 182.585C125.005 167.151 97.2825 151.756 70.0088 135.757Q80.2352 130.233 90.3092 124.436Z"/>
	<path fill="#C5E6FD" d="M90.8715 153.909C94.4836 154.452 144.699 183.815 152.462 188.201C158.767 185.359 164.951 181.334 171.018 177.942C185.41 169.894 199.717 161.59 214.287 153.873C219.098 156.537 231.168 162.28 234.648 165.711C232.79 168.232 217.889 175.568 214.223 177.656C207.174 181.191 200.332 185.366 193.45 189.225L152.551 212.078L70.2615 165.471C76.9359 161.369 84.0296 157.742 90.8715 153.909Z"/>
	<path d="M602.659 59.2496C605.025 59.0579 607.412 59.0382 609.785 59.054C620.575 59.1257 637.228 60.9137 645.327 69.1241C647.343 68.4685 649.373 66.9771 651.275 65.9998Q654.552 64.2917 658.029 63.0432Q661.507 61.7946 665.122 61.0286C680.838 57.7805 701.455 58.5324 715.234 67.6409C724.784 73.9544 730.228 83.583 732.483 94.6497Q733.802 101.341 734.036 108.157C734.606 121.691 734.092 135.403 734.119 148.958C734.14 159.284 734.884 170.187 734.032 180.457C733.953 181.416 733.708 182.2 733.178 183.003C725.953 183.144 715.311 184.532 708.932 180.649C706.143 178.951 704.602 176.249 703.801 173.143C702.428 167.821 702.968 161.739 702.988 156.267L703.116 124.082C703.146 116.346 704.04 107.373 702.158 99.8522C701.054 95.443 698.64 91.5487 694.668 89.1979C688.992 85.8388 679.963 85.788 673.691 87.3717C668.979 88.5614 665.12 91.4244 663.071 95.8976C659.209 104.329 661.218 128.413 661.255 138.752C661.265 141.443 661.711 145.849 660.297 148.148C660.276 148.182 660.253 148.216 660.232 148.25Q660.469 148.61 660.645 149.004C661.774 151.478 661.428 180.152 660.388 182.893L629.71 182.9C629.82 182.758 629.916 182.612 629.997 182.45C630.749 180.928 630.624 115.569 630.234 107.13C630.085 103.891 629.806 100.043 628.775 96.9633C627.508 93.1779 624.112 90.0833 620.604 88.3849C614.497 85.4285 606.012 85.196 599.656 87.4833C594.983 89.1648 591.407 92.4762 589.687 97.1687C587.255 103.802 588.349 112.351 588.356 119.348C588.366 128.032 589.551 178.525 587.52 182.756C587.498 182.802 587.474 182.848 587.451 182.895L556.599 182.899C558.169 180.605 557.32 173.923 557.297 170.96L557.26 129.908C557.252 118.21 556.404 105.786 558.866 94.2996C560.419 87.0578 563.36 80.0923 568.14 74.3801C576.912 63.8976 589.515 60.4342 602.659 59.2496Z" fill="#FEFEFE" />
	<path d="M347.303 177.708C345.618 179.706 341.471 181.149 338.995 181.937C323.056 187.005 303.681 186.516 288.669 178.692C276.928 172.573 269.045 162.294 265.129 149.724C259.109 130.399 259.056 102.186 268.591 84.0711C274.423 72.9916 283.674 65.5669 295.619 61.8963C311.204 57.1071 331.164 57.6519 345.734 65.4079C356.83 71.3142 363.944 81.4661 367.549 93.3318C369.412 99.4615 373.697 124.64 370.63 130.252C370.613 130.284 370.595 130.315 370.577 130.346C344.318 130.675 318.025 130.314 291.76 130.419C294.414 133.624 293.648 144.559 299.454 151.276C306.521 159.45 320.191 160.627 329.243 155.44C333.92 152.76 337.737 148.195 342.838 146.301C346.655 144.884 351.594 145.429 355.585 145.738Q356.034 145.541 356.491 145.365Q356.949 145.189 357.414 145.035Q357.879 144.881 358.351 144.748Q358.823 144.616 359.3 144.505Q359.778 144.395 360.26 144.307Q360.742 144.219 361.228 144.154Q361.713 144.088 362.201 144.046Q362.69 144.003 363.179 143.983Q363.669 143.963 364.159 143.966Q364.649 143.969 365.138 143.995Q365.628 144.02 366.116 144.069Q366.603 144.118 367.088 144.189Q367.573 144.26 368.054 144.354Q368.535 144.448 369.011 144.564Q369.487 144.68 369.957 144.818Q370.428 144.956 370.891 145.116Q371.354 145.276 371.809 145.457Q372.265 145.638 372.711 145.841Q373.157 146.043 373.594 146.266Q374.03 146.489 374.456 146.732Q374.881 146.975 375.295 147.238Q375.709 147.5 376.11 147.782Q376.511 148.063 376.899 148.363Q377.286 148.663 377.659 148.981Q378.033 149.299 378.39 149.634Q378.748 149.968 379.09 150.319Q379.432 150.671 379.757 151.037Q380.083 151.404 380.39 151.785Q380.698 152.167 380.988 152.562Q381.277 152.957 381.548 153.366Q381.819 153.774 382.071 154.195Q382.322 154.615 382.554 155.047Q382.786 155.479 382.997 155.921Q383.208 156.363 383.399 156.815Q383.589 157.266 383.759 157.726Q383.928 158.186 384.075 158.653Q384.223 159.121 384.349 159.594Q384.474 160.068 384.578 160.547Q384.681 161.026 384.762 161.509Q384.843 161.993 384.902 162.479Q384.96 162.966 384.996 163.454Q385.032 163.943 385.044 164.433Q385.057 164.923 385.047 165.413Q385.037 165.903 385.004 166.392Q384.972 166.881 384.916 167.368Q384.861 167.855 384.782 168.338Q384.704 168.822 384.603 169.302Q384.503 169.781 384.38 170.256Q384.257 170.73 384.112 171.198Q383.967 171.667 383.801 172.127Q383.634 172.588 383.446 173.041Q383.258 173.494 383.05 173.937Q382.841 174.38 382.612 174.814Q382.383 175.247 382.134 175.669Q381.884 176.091 381.616 176.501Q381.347 176.911 381.06 177.308Q380.773 177.705 380.467 178.088Q380.162 178.471 379.839 178.84Q379.516 179.208 379.176 179.561Q378.836 179.914 378.48 180.251Q378.124 180.588 377.753 180.908Q377.382 181.228 376.996 181.53Q376.61 181.832 376.211 182.116Q375.811 182.4 375.399 182.665Q374.987 182.93 374.563 183.176Q374.138 183.421 373.703 183.646Q373.268 183.872 372.823 184.077Q372.378 184.282 371.924 184.466Q371.47 184.65 371.007 184.812Q370.545 184.975 370.076 185.116Q369.606 185.257 369.131 185.376Q368.655 185.494 368.175 185.591Q367.694 185.688 367.21 185.762Q366.726 185.836 366.238 185.887Q365.751 185.939 365.262 185.967Q364.772 185.996 364.282 186.002Q363.792 186.007 363.302 185.99Q362.813 185.973 362.324 185.934Q361.836 185.894 361.35 185.831Q360.864 185.769 360.381 185.683Q359.898 185.598 359.42 185.491Q358.942 185.383 358.47 185.253Q357.997 185.124 357.531 184.972Q357.065 184.821 356.607 184.647Q356.148 184.474 355.698 184.28Q355.248 184.086 354.808 183.871Q354.368 183.655 353.938 183.42Q353.508 183.185 353.09 182.93Q352.671 182.674 352.265 182.4Q351.859 182.126 351.466 181.833Q351.073 181.54 350.695 181.229Q350.316 180.918 349.952 180.589Q349.588 180.261 349.24 179.916Q348.892 179.571 348.56 179.21Q348.229 178.85 347.914 178.474Q347.6 178.098 347.303 177.708ZM292.406 108.451L315.375 108.468L337.87 108.483C339 105.815 337.733 100.594 336.655 97.9287C334.471 92.5239 330.312 88.0486 324.905 85.7881C321.681 84.4406 318.253 84.1745 314.791 84.2495C308.89 85.0481 302.531 86.8692 298.757 91.892C295.698 95.9633 294.567 106.1 292.406 108.451Z" fill="#FEFEFE" />
	<path fill="#FEFEFE" d="M355.585 145.738Q356.034 145.541 356.491 145.365Q356.949 145.189 357.414 145.035Q357.879 144.881 358.351 144.748Q358.823 144.616 359.3 144.505Q359.778 144.395 360.26 144.307Q360.742 144.219 361.228 144.154Q361.713 144.088 362.201 144.046Q362.69 144.003 363.179 143.983Q363.669 143.963 364.159 143.966Q364.649 143.969 365.138 143.995Q365.628 144.02 366.116 144.069Q366.603 144.118 367.088 144.189Q367.573 144.26 368.054 144.354Q368.535 144.448 369.011 144.564Q369.487 144.68 369.957 144.818Q370.428 144.956 370.891 145.116Q371.354 145.276 371.809 145.457Q372.265 145.638 372.711 145.841Q373.157 146.043 373.594 146.266Q374.03 146.489 374.456 146.732Q374.881 146.975 375.295 147.238Q375.709 147.5 376.11 147.782Q376.511 148.063 376.899 148.363Q377.286 148.663 377.659 148.981Q378.033 149.299 378.39 149.634Q378.748 149.968 379.09 150.319Q379.432 150.671 379.757 151.037Q380.083 151.404 380.39 151.785Q380.698 152.167 380.988 152.562Q381.277 152.957 381.548 153.366Q381.819 153.774 382.071 154.195Q382.322 154.615 382.554 155.047Q382.786 155.479 382.997 155.921Q383.208 156.363 383.399 156.815Q383.589 157.266 383.759 157.726Q383.928 158.186 384.075 158.653Q384.223 159.121 384.349 159.594Q384.474 160.068 384.578 160.547Q384.681 161.026 384.762 161.509Q384.843 161.993 384.902 162.479Q384.96 162.966 384.996 163.454Q385.032 163.943 385.044 164.433Q385.057 164.923 385.047 165.413Q385.037 165.903 385.004 166.392Q384.972 166.881 384.916 167.368Q384.861 167.855 384.782 168.338Q384.704 168.822 384.603 169.302Q384.503 169.781 384.38 170.256Q384.257 170.73 384.112 171.198Q383.967 171.667 383.801 172.127Q383.634 172.588 383.446 173.041Q383.258 173.494 383.05 173.937Q382.841 174.38 382.612 174.814Q382.383 175.247 382.134 175.669Q381.884 176.091 381.616 176.501Q381.347 176.911 381.06 177.308Q380.773 177.705 380.467 178.088Q380.162 178.471 379.839 178.84Q379.516 179.208 379.176 179.561Q378.836 179.914 378.48 180.251Q378.124 180.588 377.753 180.908Q377.382 181.228 376.996 181.53Q376.61 181.832 376.211 182.116Q375.811 182.4 375.399 182.665Q374.987 182.93 374.563 183.176Q374.138 183.421 373.703 183.646Q373.268 183.872 372.823 184.077Q372.378 184.282 371.924 184.466Q371.47 184.65 371.007 184.812Q370.545 184.975 370.076 185.116Q369.606 185.257 369.131 185.376Q368.655 185.494 368.175 185.591Q367.694 185.688 367.21 185.762Q366.726 185.836 366.238 185.887Q365.751 185.939 365.262 185.967Q364.772 185.996 364.282 186.002Q363.792 186.007 363.302 185.99Q362.813 185.973 362.324 185.934Q361.836 185.894 361.35 185.831Q360.864 185.769 360.381 185.683Q359.898 185.598 359.42 185.491Q358.942 185.383 358.47 185.253Q357.997 185.124 357.531 184.972Q357.065 184.821 356.607 184.647Q356.148 184.474 355.698 184.28Q355.248 184.086 354.808 183.871Q354.368 183.655 353.938 183.42Q353.508 183.185 353.09 182.93Q352.671 182.674 352.265 182.4Q351.859 182.126 351.466 181.833Q351.073 181.54 350.695 181.229Q350.316 180.918 349.952 180.589Q349.588 180.261 349.24 179.916Q348.892 179.571 348.56 179.21Q348.229 178.85 347.914 178.474Q347.6 178.098 347.303 177.708Q346.944 177.235 346.611 176.743Q346.279 176.251 345.975 175.741Q345.672 175.231 345.397 174.705Q345.122 174.178 344.878 173.637Q344.633 173.096 344.42 172.542Q344.207 171.988 344.025 171.423Q343.843 170.857 343.693 170.283Q343.543 169.708 343.426 169.126Q343.309 168.544 343.225 167.956Q343.141 167.369 343.091 166.777Q343.04 166.185 343.023 165.592Q343.006 164.998 343.022 164.405Q343.039 163.811 343.088 163.22Q343.138 162.628 343.221 162.04Q343.305 161.452 343.421 160.87Q343.537 160.288 343.686 159.713Q343.835 159.138 344.016 158.573Q344.197 158.007 344.41 157.453Q344.623 156.899 344.866 156.357Q345.11 155.816 345.384 155.289Q345.658 154.762 345.961 154.252Q346.264 153.741 346.595 153.249Q346.927 152.756 347.286 152.283Q347.645 151.81 348.029 151.358Q348.414 150.906 348.824 150.476Q349.234 150.047 349.667 149.641Q350.101 149.235 350.556 148.854Q351.012 148.474 351.488 148.119Q351.965 147.765 352.46 147.438Q352.956 147.111 353.469 146.813Q353.983 146.514 354.512 146.246Q355.041 145.977 355.585 145.738Z"/>
	<path fill="#0096FE" d="M361.341 149.202Q361.74 149.149 362.141 149.116Q362.542 149.083 362.945 149.07Q363.347 149.057 363.749 149.063Q364.152 149.069 364.554 149.095Q364.955 149.121 365.355 149.167Q365.755 149.213 366.152 149.278Q366.549 149.343 366.943 149.428Q367.337 149.513 367.725 149.616Q368.114 149.72 368.498 149.843Q368.881 149.965 369.258 150.107Q369.635 150.248 370.004 150.408Q370.374 150.567 370.735 150.745Q371.097 150.922 371.449 151.117Q371.801 151.312 372.143 151.524Q372.485 151.736 372.817 151.964Q373.148 152.193 373.468 152.437Q373.788 152.682 374.095 152.941Q374.403 153.201 374.697 153.476Q374.991 153.75 375.272 154.039Q375.553 154.328 375.819 154.63Q376.085 154.931 376.336 155.246Q376.587 155.561 376.822 155.887Q377.057 156.214 377.276 156.552Q377.495 156.889 377.698 157.237Q377.9 157.585 378.085 157.943Q378.27 158.3 378.437 158.667Q378.604 159.033 378.753 159.407Q378.903 159.78 379.033 160.161Q379.164 160.542 379.276 160.929Q379.388 161.315 379.48 161.707Q379.573 162.099 379.647 162.494Q379.72 162.89 379.774 163.289Q379.828 163.688 379.862 164.089Q379.897 164.49 379.912 164.892Q379.926 165.294 379.921 165.697Q379.916 166.099 379.892 166.501Q379.867 166.903 379.823 167.303Q379.779 167.703 379.715 168.1Q379.651 168.498 379.568 168.892Q379.484 169.285 379.382 169.675Q379.28 170.064 379.158 170.448Q379.037 170.832 378.897 171.209Q378.757 171.586 378.599 171.956Q378.44 172.327 378.264 172.688Q378.088 173.05 377.894 173.403Q377.701 173.756 377.49 174.099Q377.279 174.442 377.052 174.774Q376.825 175.106 376.581 175.427Q376.338 175.748 376.079 176.056Q375.821 176.364 375.547 176.66Q375.274 176.955 374.986 177.237Q374.698 177.518 374.397 177.785Q374.096 178.052 373.783 178.305Q373.469 178.557 373.143 178.793Q372.817 179.03 372.48 179.25Q372.143 179.47 371.796 179.673Q371.449 179.877 371.092 180.063Q370.735 180.249 370.37 180.418Q370.004 180.586 369.631 180.737Q369.257 180.887 368.877 181.019Q368.497 181.151 368.111 181.264Q367.724 181.378 367.333 181.472Q366.942 181.566 366.546 181.641Q366.151 181.716 365.752 181.771Q365.352 181.827 364.949 181.863Q364.546 181.898 364.142 181.915Q363.738 181.931 363.334 181.927Q362.93 181.923 362.526 181.899Q362.122 181.876 361.72 181.832Q361.318 181.788 360.919 181.725Q360.52 181.662 360.124 181.579Q359.728 181.496 359.337 181.394Q358.946 181.292 358.56 181.171Q358.174 181.05 357.795 180.909Q357.416 180.769 357.044 180.611Q356.672 180.452 356.309 180.276Q355.945 180.099 355.59 179.904Q355.236 179.71 354.891 179.499Q354.547 179.287 354.213 179.059Q353.879 178.831 353.557 178.586Q353.235 178.342 352.925 178.082Q352.616 177.822 352.319 177.547Q352.023 177.272 351.74 176.983Q351.457 176.694 351.189 176.392Q350.921 176.089 350.668 175.774Q350.415 175.458 350.178 175.131Q349.941 174.803 349.72 174.464Q349.5 174.126 349.296 173.776Q349.092 173.427 348.906 173.068Q348.719 172.71 348.551 172.342Q348.382 171.974 348.232 171.599Q348.082 171.224 347.951 170.841Q347.819 170.459 347.706 170.071Q347.594 169.682 347.5 169.289Q347.407 168.896 347.333 168.498Q347.259 168.101 347.205 167.7Q347.151 167.299 347.116 166.896Q347.082 166.494 347.067 166.09Q347.052 165.686 347.058 165.281Q347.063 164.877 347.088 164.473Q347.113 164.07 347.158 163.668Q347.203 163.266 347.268 162.867Q347.332 162.468 347.416 162.073Q347.501 161.677 347.604 161.286Q347.708 160.895 347.83 160.51Q347.953 160.125 348.094 159.746Q348.236 159.367 348.396 158.996Q348.555 158.625 348.733 158.262Q348.911 157.898 349.107 157.545Q349.302 157.191 349.515 156.847Q349.728 156.503 349.957 156.17Q350.187 155.837 350.432 155.516Q350.678 155.195 350.939 154.886Q351.2 154.577 351.476 154.282Q351.752 153.986 352.042 153.704Q352.332 153.423 352.635 153.156Q352.939 152.889 353.255 152.637Q353.572 152.385 353.9 152.149Q354.228 151.913 354.568 151.694Q354.907 151.474 355.257 151.272Q355.607 151.069 355.967 150.884Q356.326 150.699 356.694 150.532Q357.062 150.364 357.438 150.216Q357.814 150.067 358.197 149.936Q358.58 149.806 358.968 149.695Q359.357 149.584 359.751 149.492Q360.145 149.4 360.542 149.327Q360.94 149.255 361.341 149.202Z"/>
	<path d="M487.261 59.2494C499.204 58.4532 511.349 59.3752 522.21 64.7866C533.41 70.3667 540.815 80.0463 544.715 91.8027C547.044 98.8232 551.505 123.817 548.246 130.307C539.663 130.788 530.843 130.353 522.224 130.351L469.503 130.427C470.334 132.017 470.5 133.938 470.847 135.683C472.032 141.645 473.298 147.41 477.639 151.953C484.428 159.056 497.485 160.453 505.874 155.644C510.844 152.795 514.683 147.853 520.242 146.072C527.005 143.906 536.978 145.173 544.066 145.339C545.079 145.25 545.526 145.119 546.44 145.622C547.219 151.677 540.845 161.972 537.267 166.633C528.838 177.613 516.725 183.276 503.195 185.025C488.261 186.956 470.253 183.342 458.241 174.04C446.546 164.983 441.31 150.077 439.536 135.863C437.082 116.212 438.48 92.6978 451.048 76.5722C460.034 65.0409 473.294 60.9932 487.261 59.2494ZM469.836 108.462L493.875 108.468L515.812 108.482C516.849 105.56 515.111 99.5756 513.812 96.8495C511.206 91.378 506.924 87.2908 501.177 85.2452C498.644 84.3436 495.239 84.1119 492.553 84.2499C486.913 84.9722 480.865 86.3782 477.185 91.1472C473.201 96.3105 472.657 104.684 469.836 108.462Z" fill="#FEFEFE" />
	<path d="M785.226 59.2495Q791.233 58.8863 797.244 59.1759C810.175 59.6972 825.91 62.0515 835.151 72.1168C838.617 75.8917 840.769 80.5222 841.906 85.4911C843.961 94.4694 842.961 104.748 842.933 113.937C842.911 121.123 843.19 128.363 842.88 135.541C842.314 148.629 839.046 161.551 829.065 170.686C816.792 181.918 797.403 185.909 781.168 185.184C768.974 184.638 755.965 181.354 748.216 171.251C745.983 168.34 744.467 164.44 742.057 161.84L741.972 161.75C742.411 160.11 739.779 146.863 740.379 141.594C743.205 116.784 764.353 110.318 785.918 107.329C793.56 106.27 802.61 106.388 808.897 101.338C810.81 99.8003 812.589 97.6904 812.827 95.1513C813.032 92.9464 812.013 91.0256 810.615 89.3979C807.138 85.3502 801.714 84.722 796.709 84.3348C791.347 83.92 782.149 83.8957 777.877 87.5748C776.172 89.0428 775.272 91.1465 773.542 92.6075L773.453 92.682C763.629 93.4698 753.189 92.784 743.3 92.7119C744.182 90.9954 744.441 88.9739 745.029 87.1343C746.764 81.7138 749.222 76.4681 752.929 72.1062C760.712 62.9457 773.801 60.178 785.226 59.2495ZM774.15 156.559C780.926 160.237 787.97 161.076 795.41 158.859Q795.98 158.694 796.541 158.501Q797.103 158.308 797.654 158.087Q798.204 157.866 798.744 157.618Q799.283 157.37 799.809 157.096Q800.335 156.821 800.847 156.521Q801.359 156.22 801.855 155.895Q802.351 155.569 802.831 155.219Q803.31 154.869 803.771 154.496Q804.233 154.122 804.675 153.726Q805.117 153.331 805.539 152.913Q805.961 152.496 806.361 152.058Q806.762 151.62 807.14 151.162Q807.518 150.705 807.873 150.229Q808.228 149.753 808.559 149.26Q808.889 148.768 809.195 148.259Q809.501 147.75 809.781 147.227C813.218 140.871 814.819 129.343 812.939 122.455L811.879 121.75C806.983 123.999 801.851 125.507 796.651 126.86C787.997 129.112 774.915 130.392 771.344 140.144C769.962 143.919 770.04 148.452 771.791 152.09C772.517 153.599 773.626 154.97 774.15 156.559Z" fill="#FEFEFE" />
	<path d="M893.67 59.2498C903.969 58.2896 915.277 59.2642 925.054 62.7507C934.916 66.2676 943.403 72.593 947.949 82.2221C949.881 86.3144 952.962 94.449 951.33 98.9974C943.934 99.1048 927.889 101.062 922.204 95.7394C919.707 93.402 918.643 89.766 916.134 87.3935C912.112 83.5893 904.345 83.1686 899.102 83.3054C894.423 83.4274 888.145 83.8882 884.762 87.5278C883.431 88.9603 882.683 91.0213 882.774 92.9776C883.273 103.622 907.65 106.794 915.358 108.653C921.475 110.128 927.887 111.791 933.758 114.054C938.358 115.826 943.649 119.02 947.241 122.372C952.909 127.66 955.716 134.978 955.953 142.645C956.265 152.714 953.559 162.828 946.537 170.279C935.665 181.815 918.464 184.525 903.375 184.979C894.98 185.063 886.642 184.602 878.502 182.392C865.024 178.734 852.152 168.804 849.527 154.413C848.914 151.053 849.226 145.388 847.581 142.587C847.563 142.556 847.544 142.526 847.525 142.495L878.716 142.516C881.418 145.631 880.091 151.266 884.659 155.106C890.737 160.214 901.55 161.002 909.09 160.289C913.608 159.862 919.954 158.452 922.93 154.776Q923.124 154.531 923.294 154.268Q923.463 154.005 923.605 153.727Q923.748 153.449 923.862 153.158Q923.976 152.867 924.061 152.566Q924.146 152.265 924.201 151.957Q924.256 151.65 924.28 151.338Q924.304 151.026 924.297 150.714Q924.291 150.401 924.253 150.091C924.026 148.217 922.886 145.388 921.562 144.048C913.873 136.272 893.94 134.915 883.282 131.913C876.348 129.96 869.428 127.148 863.686 122.718C857.284 117.779 853.103 111.136 852.082 103.059C850.848 93.2922 852.941 82.8701 859.069 75.0201C867.448 64.2883 880.762 60.8379 893.67 59.2498Z" fill="#FEFEFE" />
	<path d="M384.799 26.0904C392.101 25.9337 402.479 24.4748 408.992 28.414C412.44 30.4991 414.61 33.8391 415.569 37.7093C416.472 41.3548 417.092 57.7156 415.375 60.5437Q424.523 60.5884 433.669 60.8204C434.684 62.3794 434.654 64.3965 434.756 66.1998C435 70.4888 434.153 73.9095 431.209 77.1756C427.008 81.836 421.734 82.8443 415.764 83.1226C416.797 87.4143 416.2 92.9557 416.195 97.3858C416.187 105.687 414.793 152.081 418.008 155.673C420.894 158.897 428.779 158.042 432.752 158.094C433.521 164.328 434.598 173.501 432.784 179.533C423.923 182.242 411.629 180.945 402.486 179.793C400.465 179.538 397.582 178.517 395.708 178.493C395.424 178.489 394.653 178.91 394.349 179.03C390.946 176.674 387.908 173.476 386.773 169.406C384.198 160.176 385.521 143.353 385.523 133.2L385.578 63.5261C385.598 51.8771 386.368 39.6418 385.492 28.0482C385.437 27.323 385.181 26.7062 384.799 26.0904Z" fill="#FEFEFE" />
	<path d="M432.752 158.094L434.259 158.745C435.604 163.692 434.918 175.943 434.418 181.193C426.553 183.237 401.59 182.351 394.349 179.03C394.653 178.91 395.424 178.489 395.708 178.493C397.582 178.517 400.465 179.538 402.486 179.793C411.629 180.945 423.923 182.242 432.784 179.533C434.598 173.501 433.521 164.328 432.752 158.094Z" fill="#FEFEFE" />
</svg>
